solid CATIA STL
  facet normal  0.000000e+000  0.000000e+000  9.999999e-001
    outer loop
      vertex  7.440841e+001 -1.812689e+001  1.500000e+000
      vertex  7.881122e+001 -1.895494e+001  1.500000e+000
      vertex  7.640720e+001 -8.328688e+000  1.500000e+000
    endloop
  endfacet
  facet normal  0.000000e+000  0.000000e+000  9.999999e-001
    outer loop
      vertex  7.640720e+001 -8.328688e+000  1.500000e+000
      vertex  7.881122e+001 -1.895494e+001  1.500000e+000
      vertex  8.081001e+001 -9.156731e+000  1.500000e+000
    endloop
  endfacet
  facet normal  0.000000e+000  -0.000000e+000 -9.999999e-001
    outer loop
      vertex  7.440841e+001 -1.812689e+001  0.000000e+000
      vertex  7.640720e+001 -8.328688e+000  0.000000e+000
      vertex  7.881122e+001 -1.895494e+001  0.000000e+000
    endloop
  endfacet
  facet normal  0.000000e+000  0.000000e+000 -9.999999e-001
    outer loop
      vertex  7.881122e+001 -1.895494e+001  0.000000e+000
      vertex  7.640720e+001 -8.328688e+000  0.000000e+000
      vertex  8.081001e+001 -9.156731e+000  0.000000e+000
    endloop
  endfacet
  facet normal -9.798207e-001  1.998787e-001  0.000000e+000
    outer loop
      vertex  7.440841e+001 -1.812689e+001  1.500000e+000
      vertex  7.640720e+001 -8.328688e+000  1.500000e+000
      vertex  7.440841e+001 -1.812689e+001  0.000000e+000
    endloop
  endfacet
  facet normal -9.798207e-001  1.998787e-001  0.000000e+000
    outer loop
      vertex  7.440841e+001 -1.812689e+001  0.000000e+000
      vertex  7.640720e+001 -8.328688e+000  1.500000e+000
      vertex  7.640720e+001 -8.328688e+000  0.000000e+000
    endloop
  endfacet
  facet normal  1.848311e-001  9.827703e-001  -0.000000e+000
    outer loop
      vertex  8.081001e+001 -9.156731e+000  1.500000e+000
      vertex  8.081001e+001 -9.156731e+000  0.000000e+000
      vertex  7.640720e+001 -8.328688e+000  1.500000e+000
    endloop
  endfacet
  facet normal  1.848311e-001  9.827703e-001  0.000000e+000
    outer loop
      vertex  7.640720e+001 -8.328688e+000  1.500000e+000
      vertex  8.081001e+001 -9.156731e+000  0.000000e+000
      vertex  7.640720e+001 -8.328688e+000  0.000000e+000
    endloop
  endfacet
  facet normal  9.798207e-001 -1.998787e-001  0.000000e+000
    outer loop
      vertex  8.081001e+001 -9.156731e+000  1.500000e+000
      vertex  7.881122e+001 -1.895494e+001  1.500000e+000
      vertex  8.081001e+001 -9.156731e+000  0.000000e+000
    endloop
  endfacet
  facet normal  9.798207e-001 -1.998787e-001  0.000000e+000
    outer loop
      vertex  8.081001e+001 -9.156731e+000  0.000000e+000
      vertex  7.881122e+001 -1.895494e+001  1.500000e+000
      vertex  7.881122e+001 -1.895494e+001  0.000000e+000
    endloop
  endfacet
  facet normal -1.848311e-001 -9.827703e-001  0.000000e+000
    outer loop
      vertex  7.440841e+001 -1.812689e+001  1.500000e+000
      vertex  7.440841e+001 -1.812689e+001  0.000000e+000
      vertex  7.881122e+001 -1.895494e+001  1.500000e+000
    endloop
  endfacet
  facet normal -1.848311e-001 -9.827703e-001  -0.000000e+000
    outer loop
      vertex  7.881122e+001 -1.895494e+001  1.500000e+000
      vertex  7.440841e+001 -1.812689e+001  0.000000e+000
      vertex  7.881122e+001 -1.895494e+001  0.000000e+000
    endloop
  endfacet
endsolid CATIA STL
